<svg xmlns="http://www.w3.org/2000/svg">
  <symbol id="watchlist-icon" viewBox="0 0 17 15">
    <g fill-rule="nonzero">
      <path d="M3 3V0h1v3h3v1H4v3H3V4H0V3h3zm4 3h10v1H7V6zM3 10h14v1H3zM3 14h14v1H3z"/>
    </g>
  </symbol>

  <symbol id="watched-icon" viewBox="0 0 14 10">
    <g fill-rule="nonzero">
      <path d="M12.96 0l.794.607-7.227 9.458L0 3.433l.713-.702 5.719 5.811z"/>
    </g>
  </symbol>

  <symbol id="favorite-icon" viewBox="0 0 18 18">
    <g fill-rule="nonzero">
      <path d="M9 13.435l4.038 2.123-.771-4.496 3.267-3.185-4.515-.656L9 3.13 6.98 7.22l-4.514.657 3.267 3.185-.771 4.496L9 13.435zm-5.366 3.951l1.025-5.975L.317 7.179l6-.872L9 .87l2.683 5.437 6 .872-4.342 4.232 1.025 5.975L9 14.565l-5.366 2.821z"/>
    </g>
  </symbol>

  <symbol id="logo" viewBox="0 17.239999771118164 346.19000244140625 36.69000244140625">
    <g fill="#ffffff" transform="translate(0, 0)">
      <path d="M16.75 23.54Q14.58 23.54 12.90 24.38Q11.23 25.22 10.10 26.81Q8.96 28.39 8.37 30.64Q7.79 32.89 7.79 35.69Q7.79 39.48 8.73 42.15Q9.67 44.82 11.65 46.23Q13.62 47.63 16.75 47.63Q18.92 47.63 21.11 47.14Q23.29 46.66 25.85 45.75L25.85 52.10Q23.49 53.08 21.19 53.50Q18.90 53.93 16.04 53.93Q10.52 53.93 6.97 51.65Q3.42 49.37 1.71 45.25Q0 41.14 0 35.64Q0 31.59 1.10 28.22Q2.20 24.85 4.32 22.39Q6.45 19.92 9.57 18.58Q12.70 17.24 16.75 17.24Q19.41 17.24 22.08 17.91Q24.76 18.58 27.20 19.75L24.76 25.90Q22.75 24.95 20.73 24.24Q18.70 23.54 16.75 23.54ZM33.45 53.44L33.45 17.75L41.02 17.75L41.02 53.44L33.45 53.44ZM81.67 53.44L72.05 53.44L56.52 26.44L56.30 26.44Q56.40 28.13 56.47 29.83Q56.54 31.54 56.62 33.24Q56.69 34.94 56.76 36.65L56.76 53.44L50 53.44L50 17.75L59.55 17.75L75.05 44.48L75.22 44.48Q75.17 42.82 75.10 41.19Q75.02 39.55 74.96 37.92Q74.90 36.28 74.85 34.64L74.85 17.75L81.67 17.75L81.67 53.44ZM111.21 53.44L90.65 53.44L90.65 17.75L111.21 17.75L111.21 23.95L98.22 23.95L98.22 31.79L110.30 31.79L110.30 37.99L98.22 37.99L98.22 47.19L111.21 47.19L111.21 53.44ZM133.76 53.44L125.17 25.44L124.95 25.44Q125 26.44 125.11 28.45Q125.22 30.47 125.32 32.74Q125.42 35.01 125.42 36.84L125.42 53.44L118.65 53.44L118.65 17.75L128.96 17.75L137.40 45.04L137.55 45.04L146.51 17.75L156.81 17.75L156.81 53.44L149.76 53.44L149.76 36.55Q149.76 34.86 149.82 32.67Q149.88 30.47 149.98 28.48Q150.07 26.49 150.12 25.49L149.90 25.49L140.70 53.44L133.76 53.44ZM187.65 53.44L185.06 44.95L172.05 44.95L169.46 53.44L161.30 53.44L173.90 17.60L183.15 17.60L195.80 53.44L187.65 53.44M183.25 38.60L180.66 30.30Q180.42 29.47 180.02 28.16Q179.61 26.86 179.21 25.50Q178.81 24.15 178.56 23.14Q178.32 24.15 177.89 25.62Q177.47 27.10 177.08 28.42Q176.68 29.74 176.51 30.30L173.95 38.60L183.25 38.60ZM229.91 35.25Q229.91 41.28 227.60 45.32Q225.29 49.37 220.92 51.40Q216.55 53.44 210.40 53.44L200.29 53.44L200.29 17.75L211.50 17.75Q217.11 17.75 221.24 19.74Q225.37 21.73 227.64 25.62Q229.91 29.52 229.91 35.25M222.05 35.45Q222.05 31.49 220.89 28.94Q219.73 26.39 217.47 25.17Q215.21 23.95 211.89 23.95L207.86 23.95L207.86 47.19L211.11 47.19Q216.65 47.19 219.35 44.24Q222.05 41.28 222.05 35.45ZM266.92 35.25Q266.92 41.28 264.61 45.32Q262.30 49.37 257.93 51.40Q253.56 53.44 247.41 53.44L237.30 53.44L237.30 17.75L248.51 17.75Q254.13 17.75 258.25 19.74Q262.38 21.73 264.65 25.62Q266.92 29.52 266.92 35.25M259.06 35.45Q259.06 31.49 257.90 28.94Q256.74 26.39 254.48 25.17Q252.22 23.95 248.90 23.95L244.87 23.95L244.87 47.19L248.12 47.19Q253.66 47.19 256.36 44.24Q259.06 41.28 259.06 35.45ZM274.32 53.44L274.32 17.75L281.88 17.75L281.88 53.44L274.32 53.44ZM306.03 23.54Q303.86 23.54 302.19 24.38Q300.51 25.22 299.38 26.81Q298.24 28.39 297.66 30.64Q297.07 32.89 297.07 35.69Q297.07 39.48 298.01 42.15Q298.95 44.82 300.93 46.23Q302.91 47.63 306.03 47.63Q308.20 47.63 310.39 47.14Q312.57 46.66 315.14 45.75L315.14 52.10Q312.77 53.08 310.47 53.50Q308.18 53.93 305.32 53.93Q299.80 53.93 296.25 51.65Q292.70 49.37 290.99 45.25Q289.28 41.14 289.28 35.64Q289.28 31.59 290.38 28.22Q291.48 24.85 293.60 22.39Q295.73 19.92 298.85 18.58Q301.98 17.24 306.03 17.24Q308.69 17.24 311.36 17.91Q314.04 18.58 316.48 19.75L314.04 25.90Q312.04 24.95 310.01 24.24Q307.98 23.54 306.03 23.54ZM336.50 53.44L328.93 53.44L328.93 24.05L319.24 24.05L319.24 17.75L346.19 17.75L346.19 24.05L336.50 24.05L336.50 53.44Z"/>
    </g>
  </symbol>
</svg>
